<svg width="22" height="22" viewBox="0 0 22 22" fill="none" xmlns="http://www.w3.org/2000/svg">
<path fill-rule="evenodd" clip-rule="evenodd" d="M19.7696 5.0442C19.7696 3.77855 18.7436 2.75254 17.478 2.75254H4.22295C3.06005 2.69804 2.04248 3.52749 1.86139 4.6775C1.68031 5.82751 2.39374 6.92952 3.51712 7.23504V15.485C3.51711 17.1825 4.8905 18.56 6.58795 18.565H15.0946C15.9131 18.5675 16.6988 18.244 17.2784 17.6662C17.858 17.0883 18.1838 16.3035 18.1838 15.485V7.23504C19.1347 6.93028 19.7772 6.04275 19.7696 5.0442ZM15.1038 17.1809H6.59712C6.14735 17.1809 5.71601 17.0022 5.39798 16.6842C5.07995 16.3661 4.90128 15.9348 4.90128 15.485V7.33587H16.8179V15.485C16.818 15.938 16.6368 16.3721 16.3148 16.6907C15.9928 17.0093 15.5567 17.1858 15.1038 17.1809ZM4.22295 5.96087H17.478C17.9842 5.96087 18.3946 5.55046 18.3946 5.0442C18.3946 4.53794 17.9842 4.12754 17.478 4.12754H4.22295C3.71669 4.12754 3.30629 4.53794 3.30629 5.0442C3.30629 5.55046 3.71669 5.96087 4.22295 5.96087Z" fill="#484848"/>
<path d="M12.913 9.7467H8.78795C8.40826 9.7467 8.10045 10.0545 8.10045 10.4342C8.10045 10.8139 8.40826 11.1217 8.78795 11.1217H12.913C13.2926 11.1217 13.6005 10.8139 13.6005 10.4342C13.6005 10.0545 13.2926 9.7467 12.913 9.7467Z" fill="#484848"/>
</svg>
