<svg width="24" height="24" viewBox="0 0 24 24" fill="none" xmlns="http://www.w3.org/2000/svg">
<path fill-rule="evenodd" clip-rule="evenodd" d="M7.78995 15.27L8.51995 11.86C8.62623 11.3861 8.86561 10.9525 9.20995 10.61L15.88 4.00001C16.5563 3.31098 17.4747 2.91279 18.44 2.89001C19.168 2.87957 19.87 3.16038 20.39 3.67001C21.5261 5.01247 21.3795 7.01722 20.06 8.18001L13.39 14.85C13.0475 15.1943 12.6138 15.4337 12.14 15.54L8.72995 16.27H8.53995C8.29066 16.2795 8.05256 16.1661 7.90288 15.9666C7.75319 15.767 7.71099 15.5067 7.78995 15.27ZM10.27 11.68C10.1298 11.8158 10.0325 11.9896 9.98995 12.18L9.49995 14.51L11.83 14.01C12.0204 13.9674 12.1942 13.8701 12.33 13.73L19 7.06001C19.7306 6.47503 19.8756 5.42048 19.33 4.66001C19.091 4.43171 18.7702 4.30918 18.44 4.32001C17.8705 4.34287 17.3324 4.5868 16.94 5.00001L10.27 11.68Z" fill="#484848"/>
<path d="M19.91 10.93C19.498 10.9354 19.1653 11.268 19.16 11.68V17.37C19.1734 18.1743 18.8632 18.9503 18.2992 19.5237C17.7351 20.0972 16.9643 20.4201 16.16 20.42H6.62996C4.96732 20.3874 3.63507 19.0329 3.62996 17.37V7.88001C3.65725 6.2151 5.01482 4.87978 6.67996 4.88001H12.37C12.7842 4.88001 13.12 4.54422 13.12 4.13001C13.12 3.71579 12.7842 3.38001 12.37 3.38001H6.62996C4.13646 3.37985 2.10736 5.38666 2.07996 7.88001V17.37C2.07996 19.8829 4.11706 21.92 6.62996 21.92H16.12C18.6289 21.9145 20.66 19.879 20.66 17.37V11.68C20.6546 11.268 20.3219 10.9354 19.91 10.93Z" fill="#484848"/>
</svg>
